<svg xmlns="http://www.w3.org/2000/svg" xmlns:xlink="http://www.w3.org/1999/xlink" width="500" zoomAndPan="magnify" viewBox="0 0 375 374.999991" height="500" preserveAspectRatio="xMidYMid meet" version="1.0"><defs><g/><clipPath id="6d0989569f"><path d="M 10.777344 15 L 364.027344 15 L 364.027344 309.75 L 10.777344 309.75 Z M 10.777344 15 " clip-rule="nonzero"/></clipPath></defs><g clip-path="url(#6d0989569f)"><path fill="#2199ef" d="M 46.738281 88.96875 L 162.621094 88.96875 C 163.542969 85.152344 165.453125 81.402344 168.289062 78.574219 C 172.113281 74.757812 177.78125 72.917969 183.445312 72.917969 C 189.113281 72.917969 193.859375 74.828125 197.683594 78.574219 C 200.515625 81.402344 202.429688 85.222656 203.351562 88.96875 L 276.449219 88.96875 C 277.371094 85.152344 279.285156 81.402344 281.195312 78.574219 C 285.023438 74.757812 290.6875 72.917969 296.355469 72.917969 C 302.023438 72.917969 306.769531 74.828125 310.59375 78.574219 C 314.417969 82.324219 317.25 88.050781 317.25 93.707031 C 317.25 99.367188 314.417969 105.09375 310.59375 108.84375 C 306.769531 112.660156 302.023438 114.5 296.355469 114.5 C 290.6875 114.5 284.949219 112.589844 281.195312 108.84375 C 279.285156 106.011719 277.371094 102.195312 276.449219 98.445312 L 203.421875 98.445312 C 202.5 102.265625 200.589844 106.011719 197.753906 108.84375 C 193.929688 112.660156 189.183594 114.5 183.515625 114.5 C 177.851562 114.5 172.113281 112.589844 168.359375 108.84375 C 165.527344 106.011719 163.613281 102.195312 162.691406 98.445312 L 49.640625 98.445312 C 44.894531 107.003906 42.0625 115.488281 39.230469 124.964844 L 28.746094 124.964844 C 32.570312 111.671875 37.316406 99.367188 43.902344 88.96875 Z M 172.113281 210.25 C 177.78125 210.25 182.527344 213.078125 186.351562 216.898438 C 189.183594 218.808594 191.097656 222.554688 192.015625 226.375 L 276.523438 226.375 C 277.441406 222.554688 279.355469 218.808594 281.265625 216.898438 C 285.09375 213.078125 290.757812 210.25 296.425781 210.25 C 302.09375 210.25 306.839844 213.078125 310.664062 216.898438 C 314.488281 220.71875 317.320312 225.453125 317.320312 231.113281 C 317.320312 236.769531 314.488281 242.496094 310.664062 246.246094 C 306.839844 250.066406 302.09375 251.902344 296.425781 251.902344 C 290.757812 251.902344 285.023438 249.992188 281.265625 246.246094 C 279.355469 243.417969 277.441406 239.597656 276.523438 236.769531 L 192.015625 236.769531 C 191.097656 239.597656 189.183594 243.417969 186.351562 246.246094 C 182.527344 250.066406 177.78125 251.902344 172.113281 251.902344 C 165.453125 251.902344 160.707031 249.992188 156.953125 246.246094 C 154.121094 243.417969 152.207031 239.597656 151.289062 236.769531 L 55.308594 236.769531 C 63.878906 250.066406 75.285156 262.371094 88.527344 271.84375 C 111.335938 289.878906 140.734375 300.273438 171.121094 300.273438 C 190.105469 300.273438 207.175781 296.457031 224.316406 289.878906 C 240.46875 282.3125 255.625 272.835938 268.941406 259.539062 C 270.855469 257.632812 273.6875 257.632812 275.601562 259.539062 C 277.511719 261.449219 277.511719 265.199219 275.601562 267.105469 C 262.285156 280.402344 246.132812 291.789062 228.140625 298.363281 C 210.078125 305.929688 191.097656 309.75 171.191406 309.75 C 137.972656 309.75 107.582031 298.363281 82.863281 280.332031 C 63.878906 266.117188 48.648438 247.164062 38.238281 226.304688 L 151.21875 226.304688 C 152.136719 222.484375 154.050781 218.738281 156.882812 216.828125 C 160.707031 213.148438 165.453125 210.25 172.113281 210.25 Z M 179.691406 223.546875 C 177.78125 221.636719 174.945312 220.71875 172.113281 220.71875 C 168.289062 220.71875 166.445312 221.636719 163.542969 223.546875 C 161.628906 225.453125 160.707031 228.285156 160.707031 231.113281 C 160.707031 233.941406 161.628906 236.769531 163.542969 238.679688 C 166.375 240.589844 168.289062 242.496094 172.113281 242.496094 C 174.945312 242.496094 177.78125 240.589844 179.691406 238.679688 C 181.605469 236.769531 182.527344 233.941406 182.527344 231.113281 C 182.527344 228.285156 181.605469 225.453125 179.691406 223.546875 Z M 33.492188 164.78125 C 39.15625 165.699219 42.984375 167.609375 46.808594 170.4375 C 48.722656 173.265625 50.632812 177.085938 51.554688 180.832031 L 212.984375 180.832031 C 213.90625 177.011719 215.816406 173.265625 218.652344 170.4375 C 222.476562 166.617188 228.140625 164.78125 233.808594 164.78125 C 239.476562 164.78125 244.222656 166.6875 248.046875 170.4375 C 251.871094 174.253906 254.703125 179.914062 254.703125 185.570312 C 254.703125 191.226562 251.871094 195.964844 248.046875 199.785156 C 244.222656 203.601562 239.476562 206.433594 233.808594 206.433594 C 228.140625 206.433594 222.40625 203.601562 218.652344 199.785156 C 215.816406 197.875 213.90625 194.128906 212.984375 190.308594 L 51.484375 190.308594 C 50.5625 194.128906 48.648438 197.875 46.738281 199.785156 C 44.824219 201.695312 42.914062 203.601562 40.078125 204.523438 C 41.992188 208.339844 42.914062 212.089844 44.824219 215.90625 L 34.414062 215.90625 C 32.5 213.078125 31.578125 209.261719 30.585938 206.433594 C 24.921875 205.511719 20.175781 203.601562 16.351562 199.785156 C 13.515625 195.964844 10.683594 191.226562 10.683594 185.570312 C 10.683594 179.914062 13.515625 174.183594 16.351562 170.4375 C 19.183594 168.527344 21.09375 167.609375 23.929688 165.699219 C 23.929688 164.78125 23.929688 162.871094 23.929688 162.871094 C 23.929688 153.394531 24.851562 143.917969 26.761719 134.441406 L 89.449219 134.441406 C 90.371094 130.621094 92.285156 127.792969 95.117188 124.964844 C 98.941406 121.148438 103.6875 118.316406 110.273438 118.316406 C 115.941406 118.316406 120.6875 121.148438 124.511719 124.964844 C 127.347656 127.792969 129.257812 130.621094 130.179688 134.441406 L 323.910156 134.441406 C 324.832031 130.621094 326.742188 127.792969 329.574219 124.964844 C 333.402344 121.148438 338.148438 118.316406 343.8125 118.316406 C 349.480469 118.316406 355.21875 121.148438 358.972656 124.964844 C 362.796875 128.785156 364.640625 133.523438 364.640625 139.179688 C 364.640625 144.835938 362.726562 150.566406 358.972656 154.3125 C 355.148438 158.132812 349.480469 159.96875 343.8125 159.96875 C 338.148438 159.96875 333.402344 158.0625 329.574219 154.3125 C 326.742188 151.484375 324.832031 148.65625 323.910156 144.835938 L 130.320312 144.835938 C 129.398438 148.65625 127.488281 151.484375 124.65625 154.3125 C 120.828125 158.132812 116.082031 159.96875 110.417969 159.96875 C 103.757812 159.96875 99.011719 158.0625 95.257812 154.3125 C 92.425781 151.484375 90.511719 148.65625 89.589844 144.835938 L 35.402344 144.835938 C 34.484375 150.496094 33.492188 156.222656 33.492188 162.871094 C 33.492188 163.859375 33.492188 163.859375 33.492188 164.78125 Z M 39.15625 178.074219 C 37.246094 176.164062 34.414062 174.253906 31.578125 174.253906 C 28.746094 174.253906 25.914062 176.164062 24 178.074219 C 22.085938 179.984375 21.167969 182.8125 21.167969 185.640625 C 21.167969 188.46875 22.085938 191.296875 24 193.207031 C 25.914062 195.117188 28.746094 196.035156 31.578125 196.035156 C 34.414062 196.035156 37.246094 195.117188 39.15625 193.207031 C 41.070312 191.296875 41.992188 188.46875 41.992188 185.640625 C 41.992188 182.8125 41.070312 179.914062 39.15625 178.074219 Z M 117.996094 131.613281 C 116.082031 129.703125 113.25 128.785156 110.417969 128.785156 C 106.59375 128.785156 103.757812 129.703125 101.847656 131.613281 C 99.933594 133.523438 99.011719 136.351562 99.011719 139.179688 C 99.011719 143 99.933594 144.835938 101.847656 147.738281 C 103.757812 149.644531 106.59375 150.566406 110.417969 150.566406 C 113.25 150.566406 116.082031 149.644531 117.996094 147.738281 C 119.910156 144.90625 120.828125 143 120.828125 139.179688 C 120.828125 136.351562 119.910156 133.523438 117.996094 131.613281 Z M 49.640625 78.503906 C 55.308594 70.9375 60.976562 64.289062 66.710938 58.632812 C 94.265625 32.042969 130.320312 15 171.121094 15 C 191.097656 15 210.078125 18.820312 228.070312 26.386719 C 246.132812 33.953125 262.285156 44.417969 275.53125 58.632812 C 277.441406 60.542969 277.441406 63.371094 275.53125 65.28125 C 273.617188 67.1875 270.785156 67.1875 268.871094 65.28125 C 255.554688 52.976562 240.398438 42.507812 224.246094 35.863281 C 207.175781 28.292969 190.035156 25.464844 171.050781 25.464844 C 133.082031 25.464844 98.871094 40.601562 74.222656 65.28125 C 69.476562 70.019531 65.648438 73.835938 62.816406 78.574219 L 49.640625 78.574219 Z M 304.074219 223.546875 C 302.164062 221.636719 299.332031 220.71875 296.496094 220.71875 C 293.664062 220.71875 290.832031 221.636719 288.917969 223.546875 C 287.003906 225.453125 285.09375 228.285156 285.09375 231.113281 C 285.09375 233.941406 287.003906 236.769531 288.917969 238.679688 C 290.828125 240.589844 293.664062 242.496094 296.496094 242.496094 C 299.332031 242.496094 302.164062 240.589844 304.074219 238.679688 C 305.988281 236.769531 306.910156 233.941406 306.910156 231.113281 C 306.910156 228.285156 305.988281 225.453125 304.074219 223.546875 Z M 241.386719 178.074219 C 239.476562 176.164062 236.640625 174.253906 233.808594 174.253906 C 229.984375 174.253906 228.140625 176.164062 226.230469 178.074219 C 223.394531 179.984375 222.40625 182.8125 222.40625 185.640625 C 222.40625 188.46875 223.324219 191.296875 226.230469 193.207031 C 228.140625 195.117188 230.054688 196.035156 233.808594 196.035156 C 236.640625 196.035156 239.476562 195.117188 241.386719 193.207031 C 243.300781 191.296875 244.222656 188.46875 244.222656 185.640625 C 244.292969 182.8125 243.300781 179.914062 241.386719 178.074219 Z M 351.535156 131.613281 C 349.621094 129.703125 347.710938 128.785156 343.957031 128.785156 C 341.121094 128.785156 338.289062 129.703125 336.375 131.613281 C 334.464844 133.523438 333.542969 136.351562 333.542969 139.179688 C 333.542969 143 334.464844 144.835938 336.375 147.738281 C 338.289062 149.644531 341.121094 150.566406 343.957031 150.566406 C 347.78125 150.566406 349.621094 149.644531 351.535156 147.738281 C 354.367188 144.90625 355.359375 143 355.359375 139.179688 C 355.359375 136.351562 354.4375 133.523438 351.535156 131.613281 Z M 304.074219 86.070312 C 302.164062 84.160156 299.332031 83.242188 296.496094 83.242188 C 293.664062 83.242188 290.832031 84.160156 288.917969 86.070312 C 287.003906 87.980469 285.09375 90.808594 285.09375 93.636719 C 285.09375 96.464844 287.003906 99.296875 288.917969 101.203125 C 290.832031 103.113281 293.664062 104.03125 296.496094 104.03125 C 299.332031 104.03125 302.164062 103.113281 304.074219 101.203125 C 305.988281 99.296875 306.910156 96.464844 306.910156 93.636719 C 306.910156 90.808594 305.988281 87.980469 304.074219 86.070312 Z M 172.113281 93.707031 C 172.113281 96.539062 174.027344 99.367188 175.9375 101.273438 C 177.851562 103.183594 180.683594 104.105469 183.515625 104.105469 C 186.351562 104.105469 189.183594 103.183594 191.097656 101.273438 C 193.007812 99.367188 193.929688 96.539062 193.929688 93.707031 C 193.929688 90.878906 193.007812 88.050781 191.097656 86.140625 C 189.183594 84.230469 186.351562 83.3125 183.515625 83.3125 C 180.683594 83.3125 177.851562 84.230469 175.9375 86.140625 C 174.027344 87.980469 172.113281 90.808594 172.113281 93.707031 Z M 172.113281 93.707031 " fill-opacity="1" fill-rule="nonzero"/></g><g fill="#303030" fill-opacity="1"><g transform="translate(55.06066, 354.621531)"><g><path d="M 2.625 0 L 2.625 -23.484375 L 8.703125 -23.484375 L 8.703125 0 Z M 2.625 0 "/></g></g></g><g fill="#303030" fill-opacity="1"><g transform="translate(70.308459, 354.621531)"><g><path d="M 13.25 0.3125 C 11.476562 0.3125 9.847656 0.03125 8.359375 -0.53125 C 6.867188 -1.101562 5.578125 -1.921875 4.484375 -2.984375 C 3.398438 -4.046875 2.554688 -5.316406 1.953125 -6.796875 C 1.347656 -8.285156 1.046875 -9.9375 1.046875 -11.75 C 1.046875 -13.5625 1.347656 -15.210938 1.953125 -16.703125 C 2.554688 -18.191406 3.398438 -19.460938 4.484375 -20.515625 C 5.578125 -21.578125 6.867188 -22.390625 8.359375 -22.953125 C 9.847656 -23.523438 11.476562 -23.8125 13.25 -23.8125 C 15.019531 -23.8125 16.648438 -23.523438 18.140625 -22.953125 C 19.628906 -22.390625 20.914062 -21.578125 22 -20.515625 C 23.09375 -19.460938 23.941406 -18.191406 24.546875 -16.703125 C 25.148438 -15.210938 25.453125 -13.5625 25.453125 -11.75 C 25.453125 -9.9375 25.148438 -8.285156 24.546875 -6.796875 C 23.941406 -5.316406 23.09375 -4.046875 22 -2.984375 C 20.914062 -1.921875 19.628906 -1.101562 18.140625 -0.53125 C 16.648438 0.03125 15.019531 0.3125 13.25 0.3125 Z M 13.25 -5.203125 C 14.425781 -5.203125 15.484375 -5.46875 16.421875 -6 C 17.359375 -6.539062 18.09375 -7.296875 18.625 -8.265625 C 19.164062 -9.242188 19.4375 -10.40625 19.4375 -11.75 C 19.4375 -13.082031 19.164062 -14.238281 18.625 -15.21875 C 18.09375 -16.195312 17.359375 -16.953125 16.421875 -17.484375 C 15.484375 -18.023438 14.425781 -18.296875 13.25 -18.296875 C 12.070312 -18.296875 11.015625 -18.023438 10.078125 -17.484375 C 9.148438 -16.953125 8.421875 -16.195312 7.890625 -15.21875 C 7.359375 -14.238281 7.09375 -13.082031 7.09375 -11.75 C 7.09375 -10.40625 7.359375 -9.242188 7.890625 -8.265625 C 8.421875 -7.296875 9.148438 -6.539062 10.078125 -6 C 11.015625 -5.46875 12.070312 -5.203125 13.25 -5.203125 Z M 13.25 -5.203125 "/></g></g></g><g fill="#303030" fill-opacity="1"><g transform="translate(100.725705, 354.621531)"><g><path d="M 17.109375 -23.484375 L 17.109375 -18.203125 L 11.8125 -18.203125 L 11.8125 0 L 5.78125 0 L 5.78125 -18.203125 L 0.46875 -18.203125 L 0.46875 -23.484375 Z M 17.109375 -23.484375 "/></g></g></g><g fill="#303030" fill-opacity="1"><g transform="translate(122.216929, 354.621531)"><g/></g></g><g fill="#303030" fill-opacity="1"><g transform="translate(134.638421, 354.621531)"><g><path d="M 13.25 0.3125 C 11.476562 0.3125 9.847656 0.03125 8.359375 -0.53125 C 6.867188 -1.101562 5.578125 -1.914062 4.484375 -2.96875 C 3.398438 -4.03125 2.554688 -5.300781 1.953125 -6.78125 C 1.347656 -8.269531 1.046875 -9.925781 1.046875 -11.75 C 1.046875 -13.5625 1.347656 -15.210938 1.953125 -16.703125 C 2.554688 -18.191406 3.398438 -19.460938 4.484375 -20.515625 C 5.578125 -21.578125 6.867188 -22.390625 8.359375 -22.953125 C 9.847656 -23.523438 11.476562 -23.8125 13.25 -23.8125 C 15.125 -23.8125 16.832031 -23.5 18.375 -22.875 C 19.925781 -22.257812 21.253906 -21.375 22.359375 -20.21875 C 23.460938 -19.070312 24.273438 -17.703125 24.796875 -16.109375 L 19.109375 -14.109375 C 18.847656 -14.984375 18.4375 -15.726562 17.875 -16.34375 C 17.3125 -16.96875 16.632812 -17.445312 15.84375 -17.78125 C 15.0625 -18.125 14.195312 -18.296875 13.25 -18.296875 C 12.070312 -18.296875 11.015625 -18.023438 10.078125 -17.484375 C 9.148438 -16.953125 8.421875 -16.195312 7.890625 -15.21875 C 7.359375 -14.238281 7.09375 -13.082031 7.09375 -11.75 C 7.09375 -10.40625 7.359375 -9.242188 7.890625 -8.265625 C 8.421875 -7.296875 9.148438 -6.539062 10.078125 -6 C 11.015625 -5.46875 12.070312 -5.203125 13.25 -5.203125 C 14.195312 -5.203125 15.0625 -5.367188 15.84375 -5.703125 C 16.632812 -6.046875 17.3125 -6.523438 17.875 -7.140625 C 18.4375 -7.765625 18.847656 -8.515625 19.109375 -9.390625 L 24.796875 -7.390625 C 24.273438 -5.804688 23.460938 -4.4375 22.359375 -3.28125 C 21.253906 -2.125 19.925781 -1.234375 18.375 -0.609375 C 16.832031 0.00390625 15.125 0.3125 13.25 0.3125 Z M 13.25 0.3125 "/></g></g></g><g fill="#303030" fill-opacity="1"><g transform="translate(164.001791, 354.621531)"><g><path d="M 13.25 0.3125 C 11.476562 0.3125 9.847656 0.03125 8.359375 -0.53125 C 6.867188 -1.101562 5.578125 -1.921875 4.484375 -2.984375 C 3.398438 -4.046875 2.554688 -5.316406 1.953125 -6.796875 C 1.347656 -8.285156 1.046875 -9.9375 1.046875 -11.75 C 1.046875 -13.5625 1.347656 -15.210938 1.953125 -16.703125 C 2.554688 -18.191406 3.398438 -19.460938 4.484375 -20.515625 C 5.578125 -21.578125 6.867188 -22.390625 8.359375 -22.953125 C 9.847656 -23.523438 11.476562 -23.8125 13.25 -23.8125 C 15.019531 -23.8125 16.648438 -23.523438 18.140625 -22.953125 C 19.628906 -22.390625 20.914062 -21.578125 22 -20.515625 C 23.09375 -19.460938 23.941406 -18.191406 24.546875 -16.703125 C 25.148438 -15.210938 25.453125 -13.5625 25.453125 -11.75 C 25.453125 -9.9375 25.148438 -8.285156 24.546875 -6.796875 C 23.941406 -5.316406 23.09375 -4.046875 22 -2.984375 C 20.914062 -1.921875 19.628906 -1.101562 18.140625 -0.53125 C 16.648438 0.03125 15.019531 0.3125 13.25 0.3125 Z M 13.25 -5.203125 C 14.425781 -5.203125 15.484375 -5.46875 16.421875 -6 C 17.359375 -6.539062 18.09375 -7.296875 18.625 -8.265625 C 19.164062 -9.242188 19.4375 -10.40625 19.4375 -11.75 C 19.4375 -13.082031 19.164062 -14.238281 18.625 -15.21875 C 18.09375 -16.195312 17.359375 -16.953125 16.421875 -17.484375 C 15.484375 -18.023438 14.425781 -18.296875 13.25 -18.296875 C 12.070312 -18.296875 11.015625 -18.023438 10.078125 -17.484375 C 9.148438 -16.953125 8.421875 -16.195312 7.890625 -15.21875 C 7.359375 -14.238281 7.09375 -13.082031 7.09375 -11.75 C 7.09375 -10.40625 7.359375 -9.242188 7.890625 -8.265625 C 8.421875 -7.296875 9.148438 -6.539062 10.078125 -6 C 11.015625 -5.46875 12.070312 -5.203125 13.25 -5.203125 Z M 13.25 -5.203125 "/></g></g></g><g fill="#303030" fill-opacity="1"><g transform="translate(194.419038, 354.621531)"><g><path d="M 18.8125 -23.484375 L 24.90625 -23.484375 L 24.90625 0 L 17.671875 0 L 8.703125 -15.234375 L 8.703125 0 L 2.625 0 L 2.625 -23.484375 L 9.78125 -23.484375 L 18.8125 -8.328125 Z M 18.8125 -23.484375 "/></g></g></g><g fill="#303030" fill-opacity="1"><g transform="translate(225.842258, 354.621531)"><g><path d="M 17.109375 -23.484375 L 17.109375 -18.203125 L 11.8125 -18.203125 L 11.8125 0 L 5.78125 0 L 5.78125 -18.203125 L 0.46875 -18.203125 L 0.46875 -23.484375 Z M 17.109375 -23.484375 "/></g></g></g><g fill="#303030" fill-opacity="1"><g transform="translate(247.333482, 354.621531)"><g><path d="M 14.828125 0 L 8.75 -9.1875 L 8.703125 -9.1875 L 8.703125 0 L 2.625 0 L 2.625 -23.484375 L 10.671875 -23.484375 C 11.660156 -23.484375 12.507812 -23.445312 13.21875 -23.375 C 13.9375 -23.3125 14.554688 -23.210938 15.078125 -23.078125 C 15.597656 -22.953125 16.066406 -22.796875 16.484375 -22.609375 C 17.753906 -22.003906 18.660156 -21.144531 19.203125 -20.03125 C 19.742188 -18.925781 20.015625 -17.628906 20.015625 -16.140625 C 20.015625 -15.296875 19.894531 -14.488281 19.65625 -13.71875 C 19.414062 -12.957031 19.035156 -12.265625 18.515625 -11.640625 C 17.992188 -11.023438 17.304688 -10.515625 16.453125 -10.109375 C 16.253906 -10.015625 16.039062 -9.925781 15.8125 -9.84375 C 15.582031 -9.757812 15.328125 -9.675781 15.046875 -9.59375 L 22.046875 0 Z M 13.015625 -17.921875 C 12.660156 -18.191406 12.222656 -18.347656 11.703125 -18.390625 C 11.191406 -18.429688 10.550781 -18.453125 9.78125 -18.453125 L 8.703125 -18.453125 L 8.703125 -12.984375 L 9.78125 -12.984375 C 10.582031 -12.984375 11.242188 -13.003906 11.765625 -13.046875 C 12.285156 -13.085938 12.710938 -13.242188 13.046875 -13.515625 C 13.316406 -13.703125 13.53125 -13.96875 13.6875 -14.3125 C 13.851562 -14.664062 13.9375 -15.128906 13.9375 -15.703125 C 13.9375 -16.273438 13.847656 -16.738281 13.671875 -17.09375 C 13.503906 -17.457031 13.285156 -17.734375 13.015625 -17.921875 Z M 13.015625 -17.921875 "/></g></g></g><g fill="#303030" fill-opacity="1"><g transform="translate(273.439412, 354.621531)"><g><path d="M 13.25 0.3125 C 11.476562 0.3125 9.847656 0.03125 8.359375 -0.53125 C 6.867188 -1.101562 5.578125 -1.921875 4.484375 -2.984375 C 3.398438 -4.046875 2.554688 -5.316406 1.953125 -6.796875 C 1.347656 -8.285156 1.046875 -9.9375 1.046875 -11.75 C 1.046875 -13.5625 1.347656 -15.210938 1.953125 -16.703125 C 2.554688 -18.191406 3.398438 -19.460938 4.484375 -20.515625 C 5.578125 -21.578125 6.867188 -22.390625 8.359375 -22.953125 C 9.847656 -23.523438 11.476562 -23.8125 13.25 -23.8125 C 15.019531 -23.8125 16.648438 -23.523438 18.140625 -22.953125 C 19.628906 -22.390625 20.914062 -21.578125 22 -20.515625 C 23.09375 -19.460938 23.941406 -18.191406 24.546875 -16.703125 C 25.148438 -15.210938 25.453125 -13.5625 25.453125 -11.75 C 25.453125 -9.9375 25.148438 -8.285156 24.546875 -6.796875 C 23.941406 -5.316406 23.09375 -4.046875 22 -2.984375 C 20.914062 -1.921875 19.628906 -1.101562 18.140625 -0.53125 C 16.648438 0.03125 15.019531 0.3125 13.25 0.3125 Z M 13.25 -5.203125 C 14.425781 -5.203125 15.484375 -5.46875 16.421875 -6 C 17.359375 -6.539062 18.09375 -7.296875 18.625 -8.265625 C 19.164062 -9.242188 19.4375 -10.40625 19.4375 -11.75 C 19.4375 -13.082031 19.164062 -14.238281 18.625 -15.21875 C 18.09375 -16.195312 17.359375 -16.953125 16.421875 -17.484375 C 15.484375 -18.023438 14.425781 -18.296875 13.25 -18.296875 C 12.070312 -18.296875 11.015625 -18.023438 10.078125 -17.484375 C 9.148438 -16.953125 8.421875 -16.195312 7.890625 -15.21875 C 7.359375 -14.238281 7.09375 -13.082031 7.09375 -11.75 C 7.09375 -10.40625 7.359375 -9.242188 7.890625 -8.265625 C 8.421875 -7.296875 9.148438 -6.539062 10.078125 -6 C 11.015625 -5.46875 12.070312 -5.203125 13.25 -5.203125 Z M 13.25 -5.203125 "/></g></g></g><g fill="#303030" fill-opacity="1"><g transform="translate(303.856659, 354.621531)"><g><path d="M 8.703125 -5.34375 L 15.578125 -5.34375 L 15.578125 0 L 2.625 0 L 2.625 -23.484375 L 8.703125 -23.484375 Z M 8.703125 -5.34375 "/></g></g></g></svg>